<?xml version="1.0" encoding="UTF-8" standalone="no"?>
<svg
   version="1.1"
   width="32"
   height="32"
   viewBox="0 0 32 32"
   xmlns="http://www.w3.org/2000/svg">
  <path
     d="M 13.150685,20.843836 V 19.00274 q 0,-2.257535 1.052055,-3.835617 1.073972,-1.6 3.265753,-3.046575 1.183562,-0.767124 1.819179,-1.775342 0.635617,-1.030137 0.635617,-2.169864 0,-1.271232 -0.898631,-1.950684 -0.898629,-0.70137 -2.586301,-0.70137 L 16.854794,0 q 4.449316,0 6.904111,1.9506849 2.454793,1.9287673 2.454793,5.4575351 0,2.652054 -1.315068,4.843834 -1.29315,2.169864 -3.923288,3.857534 -1.073972,0.701371 -1.578081,1.643837 -0.504111,0.920547 -0.504111,2.279453 v 0.810958 z M 8.9863015,9.29315 l -3.2,-4.1205472 Q 7.4082195,2.8273973 10.389041,1.4246575 13.369864,0 16.854794,0 l -0.416438,5.523288 q -2.060273,0 -4.054793,1.030136 Q 10.389041,7.583562 8.9863015,9.29315 Z M 16.109588,32 q -1.665751,0 -2.827396,-1.161644 -1.161643,-1.183561 -1.161643,-2.827397 0,-1.665753 1.161643,-2.827397 1.161645,-1.161644 2.827396,-1.161644 1.665754,0 2.827399,1.161644 1.161644,1.161644 1.161644,2.827397 0,1.643836 -1.161644,2.827397 Q 17.775342,32 16.109588,32 Z"
     style="fill:#409cff" />
</svg>
