<?xml version="1.0" encoding="UTF-8" standalone="no"?>
<svg
   xmlns:svg="http://www.w3.org/2000/svg"
   xmlns="http://www.w3.org/2000/svg"
   version="1.1"
   viewBox="0 0 96 96"
   height="96"
   width="96">
  <path
     style="fill:#007bff;fill-opacity:1;stroke-width:1"
     d="m 38.707311,22.131695 c 2.629158,0 5.140438,2.01708 5.140438,4.492106 0.0017,0.0095 -0.01357,19.05138 -0.01611,23.736205 -2.12e-4,0.0098 -0.003,0.01887 -0.003,0.02862 v 0.978859 c 0,0.466638 0.378441,0.844867 0.845079,0.844867 0.466426,0 0.844655,-0.378229 0.844655,-0.844867 v -0.253142 c 0.04601,-2.825693 2.349515,-5.102488 5.186445,-5.102488 2.865339,0 5.188352,2.323013 5.188352,5.188565 l 0.004,3.757061 c 0,0.459641 0.372504,0.832146 0.832146,0.832146 0.459429,0 0.831722,-0.372505 0.831722,-0.832146 l -0.0017,-0.21498 c 0,-2.608805 2.535025,-4.429775 5.142558,-4.429775 2.865764,0 5.177752,2.322802 5.177752,5.188353 l 0.01039,3.802856 c 0,0.447133 0.36254,0.809673 0.809673,0.809673 0.447133,0 0.809461,-0.36254 0.809461,-0.809673 l -0.003,-0.289396 c 0,-2.372412 2.567039,-4.191686 5.091887,-4.191686 2.865128,0 5.188353,2.323014 5.188353,5.188353 l 0.01654,9.532051 c 0,8.865273 -3.447736,22.216928 -24.671813,22.216928 -25.294916,0 -28.667388,-12.82205 -28.27877,-26.637798 0.09371,-3.332402 2.958413,-5.300295 5.300295,-5.300295 v 6.110604 c 0,0.768542 0.532998,0.858011 0.692007,0.858011 0.159008,0 0.674197,-0.08714 0.674197,-0.856103 0,-0.74183 0,-38.614133 0,-38.614133 2.12e-4,-2.865764 2.323013,-5.188777 5.188353,-5.188777 m 0,-4.240236 c -5.198742,0 -9.428377,4.229635 -9.428377,9.428589 v 28.742439 c -3.471693,1.161613 -6.536112,4.365747 -6.664803,8.940114 -0.201411,7.155822 0.385226,16.210846 6.761904,22.769431 5.38298,5.536688 13.807693,8.227966 25.755406,8.227966 10.745606,0 18.692868,-3.160672 23.621083,-9.394455 C 82.213738,82.227287 84.0434,76.32721 84.0434,69.542833 l -0.01654,-9.539471 c 0,-5.191533 -4.229635,-9.421169 -9.428589,-9.421169 -1.181541,0 -2.37856,0.227277 -3.49989,0.649816 -1.558499,-3.059542 -4.73698,-5.159943 -8.396516,-5.159943 -1.304508,0 -2.547322,0.247206 -3.677132,0.693491 -1.588817,-2.969225 -4.722351,-4.994574 -8.320191,-4.994574 -0.901263,0 -1.783868,0.125935 -2.627463,0.369536 6.36e-4,-0.879425 0.0013,-1.781323 0.0019,-2.686401 l 0.0064,-8.787041 c 0.0015,-2.393613 0.0023,-3.48611 -0.0076,-4.043701 h 0.0095 c 4.24e-4,-4.733164 -4.295359,-8.731918 -9.380038,-8.731918 z m 23.04026,17.968849 c -0.208407,0 -0.419995,-0.03095 -0.629463,-0.09604 -1.11815,-0.347276 -1.743161,-1.53539 -1.395674,-2.65354 0.661477,-2.129447 0.99688,-4.353238 0.99688,-6.609256 0,-12.274847 -9.986392,-22.261239 -22.261239,-22.261239 -12.274847,0 -22.261239,9.986392 -22.261239,22.261239 0,2.254745 0.335403,4.478537 0.997091,6.60968 0.347276,1.11815 -0.277947,2.306264 -1.396309,2.653328 C 14.679377,36.112177 13.491475,35.48653 13.1442,34.368168 12.356152,31.829751 11.95651,29.182995 11.95651,26.50147 11.95651,11.888557 23.845072,-5e-6 38.457985,-5e-6 c 14.612913,0 26.501475,11.888562 26.501475,26.501475 0,2.683009 -0.399642,5.329977 -1.18769,7.867122 -0.282612,0.908682 -1.120271,1.491715 -2.024289,1.491715 z m -7.797582,-7.238719 c -1.170941,0 -2.120118,-0.949177 -2.120118,-2.120118 0,-7.373134 -5.998662,-13.371584 -13.372008,-13.371584 -7.373134,0 -13.371584,5.99845 -13.371584,13.371584 0,1.170941 -0.949177,2.120118 -2.120118,2.120118 -1.170941,0 -2.120118,-0.949177 -2.120118,-2.120118 0,-9.7112 7.900619,-17.6118202 17.61182,-17.6118202 9.711412,0 17.612244,7.9006202 17.612244,17.6118202 0,1.170941 -0.949177,2.120118 -2.120118,2.120118 z" />
</svg>
