<?xml version="1.0" encoding="UTF-8" standalone="no"?>
<svg
   xmlns:dc="http://purl.org/dc/elements/1.1/"
   xmlns:cc="http://creativecommons.org/ns#"
   xmlns:rdf="http://www.w3.org/1999/02/22-rdf-syntax-ns#"
   xmlns:svg="http://www.w3.org/2000/svg"
   xmlns="http://www.w3.org/2000/svg"
   height="80"
   viewBox="0 0 80 80"
   width="80"
   version="1.1"
   id="svg12">
  <metadata
     id="metadata18">
    <rdf:RDF>
      <cc:Work
         rdf:about="">
        <dc:format>image/svg+xml</dc:format>
        <dc:type
           rdf:resource="http://purl.org/dc/dcmitype/StillImage" />
        <dc:title></dc:title>
      </cc:Work>
    </rdf:RDF>
  </metadata>
  <defs
     id="defs16" />
  <path
     d="m 38.15789,60.994872 v 3.919877 c 0,0.22792 0.240418,0.376693 0.444534,0.274337 l 3.919281,-1.95964 c 0.226732,-0.113068 0.226732,-0.436203 0,-0.549271 l -3.919281,-1.95964 c -0.204712,-0.102357 -0.444534,0.04582 -0.444534,0.274337 z m 0,0 m -5.45105,1.959641 c 0,4.021637 3.271821,7.293457 7.293457,7.293457 4.021637,0 7.293457,-3.27182 7.293457,-7.293457 0,-4.021638 -3.27182,-7.292862 -7.293457,-7.292862 -4.021636,0 -7.293457,3.27182 -7.293457,7.292862 z m 12.283906,0 c 0,2.751709 -2.23874,4.990447 -4.990449,4.990447 -2.751709,0 -4.990448,-2.238738 -4.990448,-4.990447 0,-2.751114 2.238739,-4.989854 4.990448,-4.989854 2.751709,0 4.990449,2.23874 4.990449,4.989854 z m 0,0 M 48.829094,49.289397 V 33.934814 c 0,-0.63556 -0.51535,-1.151504 -1.151505,-1.151504 H 32.323005 c -0.636154,0 -1.151504,0.515944 -1.151504,1.151504 v 15.354583 c 0,0.636154 0.51535,1.151506 1.151504,1.151506 h 15.354584 c 0.636155,0 1.151505,-0.515352 1.151505,-1.151506 z M 46.526085,48.137893 H 33.474511 V 35.086318 h 13.051574 z m 0,0 m 2.840377,-19.960602 h -18.73233 c -2.328003,0 -4.222183,1.89418 -4.222183,4.222183 v 27.944962 c 0,0.636154 0.51535,1.151504 1.151504,1.151504 0.63556,0 1.151505,-0.51535 1.151505,-1.151504 V 32.399474 c 0,-1.058075 0.861099,-1.919174 1.919174,-1.919174 h 18.73233 c 1.058075,0 1.919175,0.861099 1.919175,1.919174 v 42.377747 c 0,1.05867 -0.8611,1.919769 -1.919175,1.919769 h -18.73233 c -1.058075,0 -1.919174,-0.861099 -1.919174,-1.919769 V 61.718124 c 0,-0.635559 -0.51535,-1.151505 -1.151505,-1.151505 -0.636154,0 -1.151504,0.515946 -1.151504,1.151505 V 74.777221 C 26.411949,77.10582 28.306129,79 30.634132,79 h 18.73233 c 2.328003,0 4.222185,-1.89418 4.222185,-4.222779 V 32.399474 c 0,-2.328003 -1.894182,-4.222183 -4.222185,-4.222183 z m 19.192933,4.145417 h -0.383834 v -3.147447 c 0,-15.536085 -12.639177,-28.1752616 -28.175264,-28.1752616 -15.536087,0 -28.175262,12.6391766 -28.175262,28.1752616 v 3.147447 H 11.4412 c -5.7146756,0 -10.3641354,4.649459 -10.3641354,10.364135 v 16.275788 c 0,5.714675 4.6494598,10.364136 10.3641354,10.364136 h 7.063156 c 0.63556,0 1.151504,-0.515946 1.151504,-1.151506 v -39 c 0,-11.218094 9.126343,-20.3444348 20.344437,-20.3444348 11.218094,0 20.344437,9.1263408 20.344437,20.3444348 v 14.208573 c 0,0.63556 0.51535,1.151504 1.151505,1.151504 0.636154,0 1.151504,-0.515944 1.151504,-1.151504 v -8.758117 h 3.224213 V 67.023162 H 62.647743 V 44.758116 c 0,-0.636154 -0.51535,-1.152099 -1.151504,-1.152099 -0.636155,0 -1.151505,0.515945 -1.151505,1.152099 v 23.417145 c 0,0.636154 0.51535,1.151506 1.151505,1.151506 h 7.063156 c 5.714676,0 10.36354,-4.649461 10.36354,-10.364136 V 42.686843 c 6.1e-4,-5.714676 -4.648864,-10.364135 -10.36354,-10.364135 z M 3.3800737,58.962631 V 42.686843 c 0,-4.444747 3.6163787,-8.060532 8.0611263,-8.060532 h 0.383835 V 67.023758 H 11.4412 c -4.4447476,0 -8.0611263,-3.616379 -8.0611263,-8.061127 z M 14.128044,67.023758 V 34.625717 h 3.224808 v 32.398041 z m 48.519699,-34.70105 v -3.147447 c 0,-12.48802 -10.159424,-22.6474443 -22.647446,-22.6474443 -12.488021,0 -22.647445,10.1594243 -22.647445,22.6474443 v 3.147447 h -3.224808 v -3.147447 c 0,-14.266158 11.606094,-25.8722522 25.872253,-25.8722522 14.266159,0 25.872254,11.6060942 25.872254,25.8722522 v 3.147447 z m 13.972779,26.639923 c 0,4.444748 -3.616379,8.061127 -8.061127,8.061127 H 68.175561 V 34.625717 h 0.383834 c 4.444748,0 8.061127,3.616379 8.061127,8.061126 z"
     style="stroke-width:0.15234375;fill:#343a40;fill-opacity:1"
     id="path10" />
</svg>
