<?xml version="1.0" encoding="UTF-8" standalone="no"?>
<svg
   xmlns:dc="http://purl.org/dc/elements/1.1/"
   xmlns:cc="http://creativecommons.org/ns#"
   xmlns:rdf="http://www.w3.org/1999/02/22-rdf-syntax-ns#"
   xmlns:svg="http://www.w3.org/2000/svg"
   xmlns="http://www.w3.org/2000/svg"
   id="svg8"
   version="1.1"
   width="80"
   viewBox="0 0 80 80"
   height="80">
  <metadata
     id="metadata14">
    <rdf:RDF>
      <cc:Work
         rdf:about="">
        <dc:format>image/svg+xml</dc:format>
        <dc:type
           rdf:resource="http://purl.org/dc/dcmitype/StillImage" />
        <dc:title></dc:title>
      </cc:Work>
    </rdf:RDF>
  </metadata>
  <defs
     id="defs12" />
  <path
     d="M 17.900163,24.400004 H 7.5001632 c -0.7179199,0 -1.2999999,0.58208 -1.2999999,1.300001 v 10.399997 c 0,0.717921 0.58208,1.300001 1.2999999,1.300001 H 17.900163 c 0.71792,0 1.3,-0.58208 1.3,-1.300001 V 25.700005 c 0,-0.717921 -0.58208,-1.300001 -1.3,-1.300001 z m -1.3,10.399997 H 8.8001632 v -7.799996 h 7.7999998 z m 0,0 m 62.358104,37.37246 -15.6,-59.800002 c -0.08696,-0.335152 -0.304054,-0.621429 -0.603663,-0.795994 -0.298973,-0.173922 -0.655078,-0.221529 -0.989598,-0.132026 l -19.5,5.199995 c -0.690625,0.184083 -1.103222,0.891216 -0.922949,1.583105 l 15.599999,59.8 c 0.08696,0.335156 0.304687,0.621435 0.604297,0.795362 0.298976,0.17329 0.655077,0.220263 0.988965,0.130127 l 19.499999,-5.2 c 0.689356,-0.184083 1.101318,-0.889942 0.92295,-1.580567 z m -32.70249,-45.40923 16.988232,-4.529046 0.611279,2.339741 -16.986962,4.536034 z m 18.255858,0.333257 7.539746,28.921827 -16.981884,4.53095 -7.539744,-28.92373 z m 8.201807,31.43867 1.331104,5.10161 -16.988231,4.529052 -1.326026,-5.099704 z m -11.541308,-44.242529 1.415527,5.42725 -16.988231,4.527778 -1.414257,-5.424705 z m -2.043945,61.814744 -1.415527,-5.427246 16.988231,-4.530323 1.414257,5.424708 z m 0,0 M 40.000162,1 H 23.100163 c -0.71792,0 -1.3,0.5820798 -1.3,1.3000007 V 11.400005 H 2.3001634 c -0.7179198,0 -1.2999999,0.58208 -1.2999999,1.300001 V 77.7 c 0,0.71792 0.5820801,1.3 1.2999999,1.3 H 40.000162 c 0.717921,0 1.3,-0.58208 1.3,-1.3 V 2.3000007 C 41.300162,1.5820798 40.718083,1 40.000162,1 Z m -1.299999,67.6 h -14.3 v -2.599999 h 14.3 z M 3.6001634,20.500002 H 21.800163 V 59.499998 H 3.6001634 Z M 38.700163,15.299999 h -14.3 v -3.899994 h 14.3 z m -35.0999996,46.8 H 21.800163 v 3.900002 H 3.6001634 Z M 24.400163,63.400001 V 17.9 h 14.3 v 45.500001 z m 14.3,-59.8 v 5.200003 h -14.3 V 3.600001 Z m -16.9,10.399998 V 17.9 H 3.6001634 V 13.999999 Z M 3.6001634,68.6 H 21.800163 v 7.8 H 3.6001634 Z m 20.7999996,7.8 v -5.2 h 14.3 v 5.2 z m 0,0"
     style="stroke-width:0.16249999"
     id="path6" />
</svg>
