<?xml version="1.0" encoding="UTF-8" standalone="no"?>
<svg
   xmlns:dc="http://purl.org/dc/elements/1.1/"
   xmlns:cc="http://creativecommons.org/ns#"
   xmlns:rdf="http://www.w3.org/1999/02/22-rdf-syntax-ns#"
   xmlns:svg="http://www.w3.org/2000/svg"
   xmlns="http://www.w3.org/2000/svg"
   height="80"
   viewBox="0 0 80 80"
   width="80"
   version="1.1">
  <metadata>
  </metadata>
  <g
     transform="translate(-2.108978,0.17120137)">
    <path
       style="stroke-width:1.33333349"
       d="m 71.595737,35.182971 c 0.639936,0 1.159664,-0.519721 1.159664,-1.160262 V 15.826961 c 0,-1.470657 -1.196739,-2.667406 -2.668004,-2.667406 H 65.537862 V 9.5651419 c 0,-1.4724521 -1.195544,-2.6679959 -2.667997,-2.6679959 H 58.171409 V 3.3015354 c 0,-1.4706645 -1.197345,-2.66800315 -2.668002,-2.66800315 h -32.019 c -0.640533,0 -1.160255,0.51972095 -1.160255,1.15966365 0,0.640534 0.519722,1.160262 1.160255,1.160262 h 32.019 c 0.191386,0 0.348077,0.1560953 0.348077,0.3480775 V 63.830635 c 0,0.191385 -0.156691,0.34748 -0.348077,0.34748 -2.878525,0 -39.895611,0 -41.372848,0 -0.191982,0 -0.348078,-0.156095 -0.348078,-0.34748 V 3.3015354 c 0,-0.1919822 0.156096,-0.3480775 0.348078,-0.3480775 h 4.714004 c 0.639935,0 1.159664,-0.519728 1.159664,-1.160262 0,-0.6399427 -0.519729,-1.15966365 -1.159664,-1.15966365 h -4.714004 c -1.470657,0 -2.668004,1.19733865 -2.668004,2.66800315 V 63.830635 c 0,1.470658 1.197347,2.667405 2.668004,2.667405 h 4.70025 v 3.594414 c 0,1.472452 1.194947,2.667996 2.66621,2.667996 h 4.550127 v 3.595611 c 0,1.470665 1.196748,2.668004 2.667405,2.668004 h 41.372846 c 1.471265,0 2.668004,-1.197339 2.668004,-2.668004 V 38.66256 c 0,-0.639942 -0.519728,-1.159663 -1.159664,-1.159663 -0.641728,0 -1.160261,0.519721 -1.160261,1.159663 v 37.693501 c 0,0.191983 -0.156095,0.348085 -0.348079,0.348085 H 28.714551 c -0.191384,0 -0.347479,-0.156102 -0.347479,-0.348085 V 72.76045 h 34.502793 c 1.472453,0 2.667997,-1.195544 2.667997,-2.667996 V 54.050955 c 0,-0.639936 -0.518525,-1.159656 -1.160262,-1.159656 -0.640534,0 -1.159657,0.51972 -1.159657,1.159656 v 16.041499 c 0,0.191976 -0.154899,0.348079 -0.348078,0.348079 -1.103443,0 -40.257444,0 -41.372846,0 -0.191983,0 -0.346882,-0.156103 -0.346882,-0.348079 V 66.49804 h 34.35327 c 1.470657,0 2.668002,-1.196747 2.668002,-2.667405 0,-1.693744 0,-51.932412 0,-54.6135721 h 4.698456 c 0.193179,0 0.348078,0.1560963 0.348078,0.348079 v 5.9143391 33.932228 c 0,0.641737 0.519123,1.159664 1.159657,1.159664 0.641737,0 1.160262,-0.517927 1.160262,-1.159664 V 15.479481 h 4.549535 c 0.191984,0 0.348079,0.156094 0.348079,0.34748 v 18.195748 c 0,0.640541 0.518533,1.160262 1.160261,1.160262 z m 0,0"
       id="path2" />
    <path
       style="stroke-width:1.33333349"
       d="m 41.361985,12.116518 c 0,-3.608766 -2.935933,-6.544706 -6.544706,-6.544706 -3.608767,0 -6.544699,2.93594 -6.544699,6.544706 0,3.608767 2.935932,6.544109 6.544699,6.544109 3.608773,0 6.544706,-2.935342 6.544706,-6.544109 z m -10.769487,0 c 0,-2.3300917 1.895294,-4.2247809 4.224781,-4.2247809 2.329494,0 4.224788,1.8952951 4.224788,4.2247809 0,2.329494 -1.895294,4.224782 -4.224788,4.224782 -2.329487,0 -4.224781,-1.895288 -4.224781,-4.224782 z m 0,0"
       id="path4" />
    <path
       style="stroke-width:1.33333349"
       d="m 50.64467,13.276182 c 0.641131,0 1.160262,-0.519131 1.160262,-1.159664 0,-0.641131 -0.519131,-1.160261 -1.160262,-1.160261 h -5.438872 c -0.640533,0 -1.159663,0.51913 -1.159663,1.160261 0,0.640533 0.51913,1.159664 1.159663,1.159664 z m 0,0"
       id="path6-6" />
    <path
       style="stroke-width:1.33333349"
       d="m 24.428766,10.956257 h -5.438871 c -0.640534,0 -1.160255,0.51913 -1.160255,1.160261 0,0.640533 0.519721,1.159664 1.160255,1.159664 h 5.438871 c 0.640534,0 1.159663,-0.519131 1.159663,-1.159664 0,-0.641131 -0.519129,-1.160261 -1.159663,-1.160261 z m 0,0"
       id="path8" />
    <path
       style="stroke-width:1.33333349"
       d="m 20.51139,23.125838 c 0,0.640532 0.51913,1.159657 1.159664,1.159657 H 47.96351 c 0.640534,0 1.159665,-0.519125 1.159665,-1.159657 0,-0.641139 -0.519131,-1.160262 -1.159665,-1.160262 H 21.671054 c -0.640534,0 -1.159664,0.519123 -1.159664,1.160262 z m 0,0"
       id="path10" />
    <path
       style="stroke-width:1.33333349"
       d="M 47.962913,27.590443 H 21.671054 c -0.640534,0 -1.159664,0.51913 -1.159664,1.159663 0,0.640534 0.51913,1.159664 1.159664,1.159664 h 26.291859 c 0.641131,0 1.160262,-0.51913 1.160262,-1.159664 0,-0.640533 -0.519131,-1.159663 -1.160262,-1.159663 z m 0,0"
       id="path12" />
    <path
       style="stroke-width:1.33333349"
       d="M 47.962913,33.214719 H 21.671054 c -0.640534,0 -1.159664,0.519123 -1.159664,1.159663 0,0.641133 0.51913,1.160255 1.159664,1.160255 h 26.291859 c 0.641131,0 1.160262,-0.519122 1.160262,-1.160255 0,-0.64054 -0.519131,-1.159663 -1.160262,-1.159663 z m 0,0"
       id="path14" />
    <path
       style="stroke-width:1.33333349"
       d="M 47.962913,38.838987 H 21.671054 c -0.640534,0 -1.159664,0.519131 -1.159664,1.160262 0,0.640533 0.51913,1.159663 1.159664,1.159663 h 26.291859 c 0.641131,0 1.160262,-0.51913 1.160262,-1.159663 0,-0.641131 -0.519131,-1.160262 -1.160262,-1.160262 z m 0,0"
       id="path16" />
    <path
       style="stroke-width:1.33333349"
       d="M 47.962913,44.463861 H 21.671054 c -0.640534,0 -1.159664,0.519124 -1.159664,1.160255 0,0.640541 0.51913,1.159664 1.159664,1.159664 h 26.291859 c 0.641131,0 1.160262,-0.519123 1.160262,-1.159664 0,-0.641131 -0.519131,-1.160255 -1.160262,-1.160255 z m 0,0"
       id="path18" />
    <path
       style="stroke-width:1.33333349"
       d="m 48.466486,50.351283 c -0.4958,-0.406092 -1.226041,-0.333725 -1.632731,0.161478 L 41.296796,57.265597 38.729869,54.7501 c -0.457519,-0.447953 -1.191956,-0.440776 -1.640513,0.01674 -0.447952,0.45752 -0.440777,1.191956 0.01674,1.639908 l 2.874329,2.81752 c 0.807401,0.791255 2.118973,0.720084 2.836657,-0.1543 l 5.810877,-7.085964 c 0.406084,-0.495202 0.333717,-1.226641 -0.161484,-1.632732 z m 0,0"
       id="path20" />
  </g>
</svg>
