<?xml version="1.0" encoding="UTF-8" standalone="no"?>
<svg
   xmlns:dc="http://purl.org/dc/elements/1.1/"
   xmlns:cc="http://creativecommons.org/ns#"
   xmlns:rdf="http://www.w3.org/1999/02/22-rdf-syntax-ns#"
   xmlns:svg="http://www.w3.org/2000/svg"
   xmlns="http://www.w3.org/2000/svg"
   height="80"
   width="80"
   xml:space="preserve"
   viewBox="0 0 80 80"
   version="1.1"
   id="Layer_1"><metadata
     id="metadata69"><rdf:RDF><cc:Work
         rdf:about=""><dc:format>image/svg+xml</dc:format><dc:type
           rdf:resource="http://purl.org/dc/dcmitype/StillImage" /><dc:title></dc:title></cc:Work></rdf:RDF></metadata><defs
     id="defs67" /><style
     id="style2"
     type="text/css">
	.st0{fill:#F0C4DB;}
	.st1{fill:#FF9D9C;}
	.st2{fill:#9BEAF9;}
	.st3{fill:#E9F4BC;}
	.st4{fill:#505050;}
	.st5{fill:#FEBECC;}
	.st6{fill:#FFFFFF;}
	.st7{fill:#FDE4A1;}
	.st8{fill:#FEE7B5;}
	.st9{fill:#CDF6FC;}
	.st10{fill:#F2C6DD;}
	.st11{opacity:0.1;}
</style><g
     transform="matrix(1.6331658,0,0,1.6331658,-0.82166392,-0.829145)"
     style="stroke-width:0.61230767"
     id="g8"><rect
       style="stroke-width:0.61230767"
       id="rect6"
       y="35.119999"
       x="5.9299998"
       width="5.9400001"
       height="5.9400001" /></g><polyline
     transform="matrix(1.6331658,0,0,1.6331658,-0.82166392,-0.829145)"
     class="st6"
     points="25.67,6.35 33.05,6.35 33.05,47.88 2.68,47.88 2.68,6.35 10.06,6.35    "
     id="polyline10"
     style="fill:#ffffff;stroke-width:0.61230767" /><path
     class="st1"
     d="M 41.640647,12.61181 H 15.069039 l 1.27387,-7.1532667 h 8.802763 c 0,-1.7964823 1.453518,-3.2173366 3.217337,-3.2173366 1.780151,0 3.217337,1.4371859 3.217337,3.2173366 h 8.802763 z"
     id="path12"
     style="fill:#cccccc;stroke-width:0.99999994" /><g
     transform="matrix(1.6331658,0,0,1.6331658,-0.82166392,-0.829145)"
     style="stroke-width:0.61230767;fill:#cccccc"
     id="g18"><rect
       style="fill:#cccccc;stroke-width:0.61230767"
       id="rect16"
       y="14.57"
       x="5.9299998"
       width="5.9400001"
       height="5.9400001"
       class="st2" /></g><g
     transform="matrix(1.6331658,0,0,1.6331658,-0.82166392,-0.829145)"
     style="stroke-width:0.61230767;fill:#cccccc"
     id="g22"><rect
       style="fill:#cccccc;stroke-width:0.61230767"
       id="rect20"
       y="24.85"
       x="5.9299998"
       width="5.9400001"
       height="5.9400001"
       class="st2" /></g><g
     transform="matrix(1.6331658,0,0,1.6331658,-0.82166392,-0.829145)"
     style="stroke-width:0.61230767;fill:#cccccc"
     id="g26"><rect
       style="fill:#cccccc;stroke-width:0.61230767"
       id="rect24"
       y="35.119999"
       x="5.9299998"
       width="5.9400001"
       height="5.9400001"
       class="st2" /></g><path
     style="fill:#cccccc;stroke-width:0.99999994"
     id="path28"
     d="M 61.418285,16.123116 V 58.32412 l 5.12814,10.272613 5.128141,-10.272613 V 16.123116 c 0,-2.825377 -2.302764,-5.128141 -5.128141,-5.128141 v 0 c -2.841708,0 -5.12814,2.302764 -5.12814,5.128141 z"
     class="st1" /><polygon
     transform="matrix(1.6331658,0,0,1.6331658,-0.82166392,-0.829145)"
     style="fill:#ffffff;stroke-width:0.61230767"
     id="polygon30"
     points="44.39,36.02 38.11,36.02 38.11,36.22 41.25,42.51 44.39,36.22 "
     class="st6" /><path
     class="st4"
     d="m 7.6544666,66.228643 c 0,0.669598 0.5552764,1.224874 1.2248743,1.224874 h 9.7010051 c 0.669598,0 1.224874,-0.555276 1.224874,-1.224874 v -9.701005 c 0,-0.669598 -0.555276,-1.224874 -1.224874,-1.224874 H 8.8793409 c -0.6695979,0 -1.2248743,0.555276 -1.2248743,1.224874 z m 2.4497484,-8.476131 h 7.251256 v 7.251256 h -7.251256 z"
     id="path32"
     style="fill:#343a40;stroke-width:0.99999994;fill-opacity:1" /><path
     class="st4"
     d="m 47.438385,57.948492 c 0,-0.669598 -0.555276,-1.224874 -1.224874,-1.224874 H 24.231099 c -0.669598,0 -1.224874,0.555276 -1.224874,1.224874 0,0.669598 0.555276,1.224874 1.224874,1.224874 h 21.982412 c 0.68593,0 1.224874,-0.555276 1.224874,-1.224874 z"
     id="path34"
     style="fill:#343a40;stroke-width:0.99999994;fill-opacity:1" /><path
     class="st4"
     d="m 24.231099,62.178392 c -0.669598,0 -1.224874,0.555276 -1.224874,1.224874 0,0.669598 0.555276,1.224874 1.224874,1.224874 h 9.472362 c 0.669598,0 1.224874,-0.555276 1.224874,-1.224874 0,-0.669598 -0.555276,-1.224874 -1.224874,-1.224874 z"
     id="path36"
     style="fill:#343a40;stroke-width:0.99999994;fill-opacity:1" /><circle
     class="st4"
     cx="53.170799"
     cy="70.964821"
     r="1.2248744"
     id="circle38"
     style="fill:#505050;stroke-width:0.99999994" /><path
     class="st4"
     d="M 53.170797,8.3165835 H 42.146928 L 41.591652,5.2299001 C 41.47733,4.6582921 40.971049,4.2173373 40.383109,4.2173373 H 32.641903 C 32.102959,2.322865 30.33914,1.0000007 28.363009,1.0000007 c -1.992462,0 -3.73995,1.3228643 -4.278894,3.2173366 h -7.741206 c -0.604272,0 -1.110553,0.4409548 -1.208543,1.0125628 L 14.57909,8.3165835 H 3.5552204 c -0.3266331,0 -0.6369346,0.1306532 -0.8655778,0.3592965 C 2.4609993,8.9045232 2.3303461,9.2148247 2.3303461,9.5414578 V 77.350502 c 0,0.326633 0.1306532,0.636935 0.3592965,0.865578 0.2286432,0.228643 0.5389447,0.359296 0.8655778,0.359296 H 53.170797 c 0.326634,0 0.636935,-0.130653 0.865578,-0.359296 0.228644,-0.228643 0.359297,-0.538945 0.359297,-0.865578 v -3.119347 c 0,-0.669598 -0.555277,-1.224874 -1.224875,-1.224874 -0.685929,0 -1.224874,0.555276 -1.224874,1.224874 v 1.894472 H 4.7800948 V 10.766332 h 9.3743712 l -0.293969,1.616834 c -0.06533,0.359297 0.03266,0.718593 0.277638,0.996231 0.228643,0.277639 0.571608,0.440955 0.930904,0.440955 h 26.58794 c 0.359296,0 0.702261,-0.163316 0.930904,-0.440955 0.228643,-0.277638 0.326633,-0.636934 0.277638,-0.996231 l -0.29397,-1.616834 h 9.374372 v 56.93216 c 0,0.68593 0.538945,1.224874 1.224874,1.224874 0.669598,0 1.224875,-0.538944 1.224875,-1.224874 V 9.5414578 c 0,-0.3266331 -0.130653,-0.6369346 -0.359297,-0.8655778 C 53.7914,8.4472367 53.497431,8.3165835 53.170797,8.3165835 Z m -36.64824,3.0540205 0.849246,-4.703518 h 7.757538 c 0.342964,0 0.636934,-0.1143216 0.865578,-0.3592965 0.244974,-0.2286432 0.359296,-0.522613 0.359296,-0.8655778 0,-1.0942211 0.898241,-1.9924623 2.008794,-1.9924623 1.094221,0 1.992462,0.8982412 1.992462,1.9924623 0,0.3266331 0.130653,0.6532663 0.359297,0.8655778 0.228643,0.2286433 0.538944,0.3592965 0.865578,0.3592965 h 7.773869 l 0.832914,4.703518 z"
     id="path40"
     style="fill:#343a40;stroke-width:0.99999994;fill-opacity:1" /><path
     class="st4"
     d="m 8.8793409,33.875628 h 9.6846731 c 0.326633,0 0.636935,-0.130653 0.865578,-0.359296 0.228643,-0.228643 0.359296,-0.538945 0.359296,-0.865578 v -9.701005 c 0,-0.326633 -0.130653,-0.636935 -0.359296,-0.865578 -0.228643,-0.228643 -0.538945,-0.359296 -0.865578,-0.359296 H 8.8793409 c -0.3266331,0 -0.6369346,0.130653 -0.8655778,0.359296 -0.2286433,0.228643 -0.3592965,0.538945 -0.3592965,0.865578 v 9.701005 c 0,0.310301 0.1306532,0.636935 0.3592965,0.865578 0.2286432,0.228643 0.5389447,0.359296 0.8655778,0.359296 z m 1.2085431,-9.701005 h 7.251256 v 7.251257 h -7.251256 z"
     id="path42"
     style="fill:#343a40;stroke-width:0.99999994;fill-opacity:1" /><path
     class="st4"
     d="m 24.231099,25.595478 h 21.982412 c 0.68593,0 1.224874,-0.555277 1.224874,-1.224875 0,-0.685929 -0.538944,-1.224874 -1.224874,-1.224874 H 24.231099 c -0.669598,0 -1.224874,0.538945 -1.224874,1.224874 0,0.669598 0.555276,1.224875 1.224874,1.224875 z"
     id="path44"
     style="fill:#343a40;stroke-width:0.99999994;fill-opacity:1" /><path
     class="st4"
     d="m 24.231099,31.050251 h 9.488694 c 0.669598,0 1.224874,-0.555276 1.224874,-1.224874 0,-0.68593 -0.555276,-1.224874 -1.224874,-1.224874 h -9.488694 c -0.669598,0 -1.224874,0.538944 -1.224874,1.224874 0,0.669598 0.555276,1.224874 1.224874,1.224874 z"
     id="path46"
     style="fill:#343a40;stroke-width:0.99999994;fill-opacity:1" /><path
     class="st4"
     d="m 7.6544666,49.439698 c 0,0.326633 0.1306532,0.636935 0.3592965,0.865578 0.2123115,0.228643 0.5389447,0.359297 0.8655778,0.359297 h 9.6846731 c 0.326633,0 0.636935,-0.130654 0.865578,-0.359297 0.228643,-0.228643 0.359296,-0.538945 0.359296,-0.865578 v -9.701005 c 0,-0.326633 -0.130653,-0.636934 -0.359296,-0.865577 -0.228643,-0.228644 -0.538945,-0.359297 -0.865578,-0.359297 H 8.8793409 c -0.3266331,0 -0.6532663,0.130653 -0.8655778,0.359297 -0.2286433,0.228643 -0.3592965,0.538944 -0.3592965,0.865577 z m 2.4334174,-8.47613 h 7.251256 v 7.251256 h -7.251256 z"
     id="path48"
     style="fill:#343a40;stroke-width:0.99999994;fill-opacity:1" /><path
     class="st4"
     d="m 24.231099,42.384422 h 21.982412 c 0.68593,0 1.224874,-0.555276 1.224874,-1.224874 0,-0.68593 -0.538944,-1.224875 -1.224874,-1.224875 H 24.231099 c -0.669598,0 -1.224874,0.538945 -1.224874,1.224875 0,0.669598 0.555276,1.224874 1.224874,1.224874 z"
     id="path50"
     style="fill:#343a40;stroke-width:0.99999994;fill-opacity:1" /><path
     class="st4"
     d="m 24.231099,47.839196 h 9.488694 c 0.669598,0 1.224874,-0.555277 1.224874,-1.224875 0,-0.685929 -0.555276,-1.224874 -1.224874,-1.224874 h -9.488694 c -0.669598,0 -1.224874,0.538945 -1.224874,1.224874 0,0.669598 0.555276,1.224875 1.224874,1.224875 z"
     id="path52"
     style="fill:#343a40;stroke-width:0.99999994;fill-opacity:1" /><circle
     class="st4"
     cx="71.674568"
     cy="49.994976"
     r="1.2248744"
     id="circle54"
     style="fill:#505050;stroke-width:0.99999994" /><path
     class="st4"
     d="M 78.337882,20.042714 C 78.109239,19.814071 77.798938,19.683417 77.472305,19.683417 H 72.89944 v -3.560301 c 0,-3.511306 -2.841708,-6.353015 -6.353015,-6.353015 -3.494974,0 -6.353015,2.841709 -6.353015,6.353015 v 42.217336 l 0.01633,0.08166 c 0.01633,0.146985 0.049,0.29397 0.09799,0.424623 v 0.03266 l 5.128141,10.272613 c 0.212311,0.424623 0.636934,0.669598 1.094221,0.669598 0.473618,0 0.898241,-0.244975 1.094221,-0.669598 l 5.144472,-10.288945 v -0.03266 c 0.06533,-0.146985 0.114322,-0.310302 0.114322,-0.48995 v -5.062814 c 0,-0.68593 -0.538945,-1.224874 -1.224875,-1.224874 -0.669598,0 -1.224874,0.538944 -1.224874,1.224874 v 3.83794 H 62.626827 V 22.133166 h 7.806533 v 24.595477 c 0,0.669598 0.555276,1.224874 1.224874,1.224874 0.68593,0 1.224875,-0.555276 1.224875,-1.224874 V 22.133166 h 3.34799 v 18.765075 c 0,0.68593 0.555276,1.224875 1.224874,1.224875 0.669598,0 1.224874,-0.538945 1.224874,-1.224875 V 20.908292 c 0.01633,-0.326633 -0.114321,-0.636935 -0.342965,-0.865578 z m -11.791457,45.810301 -3.15201,-6.30402 h 6.287689 z M 62.643159,19.683417 v -3.560301 c 0.01633,-2.155779 1.763819,-3.903266 3.903266,-3.903266 2.155779,0 3.903267,1.747487 3.903267,3.903266 v 3.560301 z"
     id="path56"
     style="fill:#343a40;stroke-width:0.99999994;fill-opacity:1" /></svg>