<?xml version="1.0" encoding="UTF-8" standalone="no"?>
<svg
   xmlns:dc="http://purl.org/dc/elements/1.1/"
   xmlns:cc="http://creativecommons.org/ns#"
   xmlns:rdf="http://www.w3.org/1999/02/22-rdf-syntax-ns#"
   xmlns:svg="http://www.w3.org/2000/svg"
   xmlns="http://www.w3.org/2000/svg"
   height="80"
   viewBox="0 0 80 80"
   width="80"
   version="1.1"
   id="svg16">
  <metadata
     id="metadata22">
    <rdf:RDF>
      <cc:Work
         rdf:about="">
        <dc:format>image/svg+xml</dc:format>
        <dc:type
           rdf:resource="http://purl.org/dc/dcmitype/StillImage" />
        <dc:title></dc:title>
      </cc:Work>
    </rdf:RDF>
  </metadata>
  <defs
     id="defs20" />
  <g
     id="g834">
    <path
       style="fill:#dee2e6;fill-opacity:1;stroke:#6c757d;stroke-width:0.15725806;stroke-opacity:1"
       id="path2"
       d="M 71.451614,50.32258 H 8.5483874 V 12.580647 H 71.451614 Z m 0,0" />
    <path
       style="fill:#343a40;fill-opacity:1;stroke-width:0.15725806"
       id="path4"
       d="M 75.225807,5.548387 H 4.7741937 c -2.080598,0 -3.7741936,1.693592 -3.7741936,3.774192 V 70.67742 c 0,2.080601 1.6935956,3.774193 3.7741936,3.774193 H 75.225807 C 77.306408,74.451613 79,72.758021 79,70.67742 V 9.322579 C 79,7.241978 77.306408,5.548387 75.225807,5.548387 Z m 1.258067,65.129033 c 0,0.694148 -0.565148,1.258066 -1.258067,1.258066 H 4.7741937 c -0.6929184,0 -1.2580645,-0.563918 -1.2580645,-1.258066 V 9.322579 c 0,-0.692919 0.5651461,-1.258066 1.2580645,-1.258066 H 75.225807 c 0.692919,0 1.258067,0.565148 1.258067,1.258066 z" />
    <path
       style="fill:#343a40;fill-opacity:1;stroke-width:0.15725806"
       id="path8"
       d="M 6.0322582,66.938982 17.651541,61.129034 6.0322582,55.319084 Z m 2.5161292,-7.548387 3.4774916,1.738438 -3.4774916,1.738437 z m 0,0" />
    <path
       style="fill:#343a40;fill-opacity:1;stroke-width:0.15725806"
       id="path10"
       d="m 24.903226,54.838706 h 2.516129 v 12.580647 h -2.516129 z m 0,0" />
    <path
       style="fill:#343a40;fill-opacity:1;stroke-width:0.15725806"
       id="path12"
       d="m 19.870968,54.838706 h 2.516129 v 12.580647 h -2.516129 z m 0,0" />
    <path
       style="fill:#343a40;fill-opacity:1;stroke-width:0.15725806"
       id="path14"
       d="m 53.838711,54.838706 h -7.548387 v 5.032261 H 29.935484 V 62.3871 h 16.35484 v 5.032253 h 7.548387 V 62.3871 H 73.96774 V 59.870967 H 53.838711 Z m -2.516129,10.06452 h -2.51613 V 57.35484 h 2.51613 z m 0,0" />
    <path
       d="m 41.911232,36.152428 v -1.766786 c 2.360357,-1.329643 4.285714,-4.646786 4.285714,-7.962857 0,-5.326072 0,-9.642857 -6.428571,-9.642857 -6.428571,0 -6.428571,4.316785 -6.428571,9.642857 0,3.317143 1.925357,6.633214 4.285714,7.962857 v 1.766786 c -7.268572,0.594642 -12.857143,4.165714 -12.857143,8.483571 h 30 c 0,-4.317857 -5.588572,-7.89 -12.857143,-8.483571 z"
       id="path4-6"
       style="fill:#343a40;fill-opacity:1;stroke-width:1.07142854" />
  </g>
</svg>
