<?xml version="1.0" encoding="UTF-8" standalone="no"?>
<svg
   xmlns:dc="http://purl.org/dc/elements/1.1/"
   xmlns:cc="http://creativecommons.org/ns#"
   xmlns:rdf="http://www.w3.org/1999/02/22-rdf-syntax-ns#"
   xmlns:svg="http://www.w3.org/2000/svg"
   xmlns="http://www.w3.org/2000/svg"
   height="80"
   width="80"
   xml:space="preserve"
   viewBox="0 0 80 80"
   y="0px"
   x="0px"
   id="Capa_1"
   version="1.1"><metadata
     id="metadata49"><rdf:RDF><cc:Work
         rdf:about=""><dc:format>image/svg+xml</dc:format><dc:type
           rdf:resource="http://purl.org/dc/dcmitype/StillImage" /><dc:title></dc:title></cc:Work></rdf:RDF></metadata><defs
     id="defs47" /><g
     transform="translate(0,25)"
     id="g14" /><g
     transform="translate(0,25)"
     id="g16" /><g
     transform="translate(0,25)"
     id="g18" /><g
     transform="translate(0,25)"
     id="g20" /><g
     transform="translate(0,25)"
     id="g22" /><g
     transform="translate(0,25)"
     id="g24" /><g
     transform="translate(0,25)"
     id="g26" /><g
     transform="translate(0,25)"
     id="g28" /><g
     transform="translate(0,25)"
     id="g30" /><g
     transform="translate(0,25)"
     id="g32" /><g
     transform="translate(0,25)"
     id="g34" /><g
     transform="translate(0,25)"
     id="g36" /><g
     transform="translate(0,25)"
     id="g38" /><g
     transform="translate(0,25)"
     id="g40" /><g
     transform="translate(0,25)"
     id="g42" /><path
     d="m 18.312724,10.951661 v 32.25 h 43 v -32.25 z m 8.0625,29.5625 h -5.375 v -5.375 h 5.375 z m 0,-10.75 h -5.375 v -5.375 h 5.375 z m 0,-10.75 h -5.375 v -5.375 h 5.375 z m 24.1875,21.5 h -21.5 v -26.875 h 21.5 z m 8.0625,0 h -5.375 v -5.375 h 5.375 z m 0,-10.75 h -5.375 v -5.375 h 5.375 z m 0,-10.75 h -5.375 v -5.375 h 5.375 z m -24.1875,0 v 16.125 l 10.75,-8.0625 z M 17.309091,59.145454 c -0.784254,0 -1.418182,0.633928 -1.418182,1.418182 v 8.509091 c 0,0.784254 0.633928,1.418182 1.418182,1.418182 0.784255,0 1.418182,-0.633928 1.418182,-1.418182 v -8.509091 c 0,-0.784254 -0.633927,-1.418182 -1.418182,-1.418182 z m -5.672727,0 c -0.784255,0 -1.418182,0.633928 -1.418182,1.418182 v 8.509091 c 0,0.784254 0.633927,1.418182 1.418182,1.418182 0.784255,0 1.418182,-0.633928 1.418182,-1.418182 v -8.509091 c 0,-0.784254 -0.633927,-1.418182 -1.418182,-1.418182 z M 68.363636,63.4 H 34.327273 v -2.836364 c 0,-0.784254 -0.633927,-1.418182 -1.418182,-1.418182 -0.784255,0 -1.418182,0.633928 -1.418182,1.418182 V 63.4 H 25.818182 C 25.033927,63.4 24.4,64.033927 24.4,64.818181 c 0,0.784255 0.633927,1.418182 1.418182,1.418182 h 5.672727 v 2.836364 c 0,0.784254 0.633927,1.418182 1.418182,1.418182 0.784255,0 1.418182,-0.633928 1.418182,-1.418182 v -2.836364 h 34.036363 c 0.784255,0 1.418182,-0.633927 1.418182,-1.418182 C 69.781818,64.033927 69.147891,63.4 68.363636,63.4 Z M 1.7090914,1.0000005 V 79 H 78.290909 V 1.0000005 Z M 75.454545,3.8363641 V 50.636363 H 4.545455 V 3.8363641 Z M 4.545455,76.163636 V 53.472727 h 70.90909 v 22.690909 z"
     style="stroke-width:1.34375;fill:#343a40;fill-opacity:1"
     id="path4-1" /></svg>