<?xml version="1.0" encoding="UTF-8" standalone="no"?>
<svg
   xmlns:dc="http://purl.org/dc/elements/1.1/"
   xmlns:cc="http://creativecommons.org/ns#"
   xmlns:rdf="http://www.w3.org/1999/02/22-rdf-syntax-ns#"
   xmlns:svg="http://www.w3.org/2000/svg"
   xmlns="http://www.w3.org/2000/svg"
   id="svg34"
   xml:space="preserve"
   viewBox="0 0 32 32"
   version="1.1"
   enable-background="new 0 0 32 32"><metadata
     id="metadata40"><rdf:RDF><cc:Work
         rdf:about=""><dc:format>image/svg+xml</dc:format><dc:type
           rdf:resource="http://purl.org/dc/dcmitype/StillImage" /><dc:title></dc:title></cc:Work></rdf:RDF></metadata><defs
     id="defs38"><linearGradient
       gradientTransform="matrix(0.72481251,0,0,0.72481251,4.4029995,4.4029996)"
       y2="4.4029999"
       y1="27.597"
       x2="16"
       x1="16"
       id="SVGID_1_"
       gradientUnits="userSpaceOnUse"><stop
         id="stop7"
         style="stop-color:#FF2D76"
         offset="0" /><stop
         id="stop9"
         style="stop-color:#FB0000"
         offset="1" /></linearGradient></defs><g
     id="Layer_6" /><circle
     style="fill:#ffffff"
     id="circle5"
     r="13.809"
     cy="16"
     cx="16" /><g
     style="stroke-width:0.72481251"
     transform="matrix(1.3796671,0,0,1.3796671,-6.0746736,-6.0746736)"
     id="g870"><circle
       cx="16"
       cy="16"
       r="11.597"
       id="circle12"
       style="fill:url(#SVGID_1_);stroke-width:0.72481251" /><g
       style="stroke-width:0.72481251"
       id="Official_copy_2"><g
         style="stroke-width:0.72481251"
         id="g31"><g
           style="stroke-width:0.72481251"
           id="g23"><path
             style="fill:#ffffff;stroke-width:0.72481251"
             d="m 20.132,18.422 c -0.117,0 -0.201,0.033 -0.252,0.103 -0.051,0.066 -0.076,0.178 -0.076,0.335 v 0.377 h 0.649 V 18.86 c 0,-0.156 -0.026,-0.269 -0.078,-0.335 -0.049,-0.07 -0.131,-0.103 -0.243,-0.103 z"
             id="path17" /><path
             style="fill:#ffffff;stroke-width:0.72481251"
             d="m 17.602,18.409 c -0.053,0 -0.105,0.011 -0.156,0.036 -0.051,0.024 -0.101,0.063 -0.151,0.114 v 2.326 c 0.059,0.06 0.118,0.106 0.174,0.132 0.056,0.026 0.115,0.04 0.177,0.04 0.09,0 0.156,-0.026 0.198,-0.079 0.042,-0.052 0.064,-0.137 0.064,-0.257 v -1.928 c 0,-0.126 -0.026,-0.222 -0.078,-0.287 -0.053,-0.065 -0.13,-0.097 -0.228,-0.097 z"
             id="path19" /><path
             style="fill:#ffffff;stroke-width:0.72481251"
             d="m 21.68,15.516 c -0.603,-0.602 -5.683,-0.61 -5.683,-0.61 0,0 -5.079,0.008 -5.683,0.61 -0.604,0.603 -0.606,3.58 -0.606,3.597 0,0.023 10e-4,2.994 0.606,3.598 0.604,0.602 5.683,0.615 5.683,0.615 0,0 5.08,-0.013 5.683,-0.614 0.607,-0.605 0.612,-3.598 0.612,-3.598 0,-0.018 -0.007,-2.995 -0.612,-3.598 z m -8.098,1.754 h -0.855 v 4.324 H 11.899 V 17.27 h -0.855 v -0.735 h 2.538 z M 16,21.594 h -0.733 v -0.41 c -0.137,0.152 -0.277,0.267 -0.424,0.346 -0.147,0.08 -0.288,0.119 -0.426,0.119 -0.17,0 -0.296,-0.054 -0.384,-0.167 -0.085,-0.112 -0.128,-0.277 -0.128,-0.5 v -3.121 h 0.733 v 2.863 c 0,0.089 0.016,0.152 0.045,0.192 0.032,0.04 0.082,0.059 0.151,0.059 0.054,0 0.123,-0.026 0.205,-0.079 0.083,-0.053 0.158,-0.119 0.228,-0.2 V 17.86 H 16 Z m 2.663,-0.771 c 0,0.264 -0.058,0.466 -0.173,0.608 -0.114,0.141 -0.281,0.211 -0.499,0.211 -0.144,0 -0.272,-0.026 -0.383,-0.081 -0.112,-0.054 -0.218,-0.137 -0.314,-0.253 v 0.286 h -0.742 v -5.059 h 0.742 v 1.629 c 0.1,-0.114 0.204,-0.201 0.315,-0.259 0.112,-0.06 0.225,-0.089 0.338,-0.089 0.233,0 0.41,0.079 0.532,0.238 0.124,0.159 0.184,0.392 0.184,0.698 z m 2.545,-1.005 h -1.404 v 0.702 c 0,0.197 0.024,0.333 0.071,0.41 0.05,0.076 0.132,0.113 0.249,0.113 0.122,0 0.206,-0.032 0.255,-0.096 0.048,-0.064 0.074,-0.206 0.074,-0.426 v -0.17 h 0.755 v 0.192 c 0,0.383 -0.091,0.671 -0.276,0.866 -0.183,0.193 -0.458,0.289 -0.823,0.289 -0.328,0 -0.588,-0.102 -0.777,-0.307 -0.188,-0.204 -0.284,-0.487 -0.284,-0.847 v -1.676 c 0,-0.323 0.105,-0.588 0.312,-0.791 0.207,-0.204 0.474,-0.306 0.804,-0.306 0.336,0 0.594,0.095 0.775,0.283 0.18,0.188 0.27,0.46 0.27,0.814 v 0.95 z"
             id="path21" /></g><path
           style="fill:#ffffff;stroke-width:0.72481251"
           d="m 20.129,13.34 h -0.827 v -0.454 c -0.151,0.167 -0.309,0.296 -0.475,0.382 -0.165,0.087 -0.324,0.131 -0.479,0.131 -0.193,0 -0.335,-0.061 -0.432,-0.184 -0.096,-0.122 -0.145,-0.306 -0.145,-0.551 V 9.228 h 0.825 v 3.152 c 0,0.097 0.019,0.168 0.053,0.211 0.034,0.044 0.091,0.066 0.168,0.066 0.06,0 0.138,-0.029 0.23,-0.087 0.093,-0.058 0.178,-0.131 0.254,-0.222 v -3.12 h 0.827 z"
           id="path25" /><path
           style="fill:#ffffff;stroke-width:0.72481251"
           d="m 16.774,9.424 c -0.219,-0.199 -0.5,-0.299 -0.841,-0.299 -0.375,0 -0.674,0.095 -0.896,0.283 -0.223,0.188 -0.334,0.442 -0.334,0.761 V 12.3 c 0,0.349 0.109,0.627 0.325,0.834 0.217,0.206 0.507,0.309 0.868,0.309 0.376,0 0.67,-0.1 0.886,-0.3 0.213,-0.201 0.32,-0.476 0.32,-0.828 V 10.191 C 17.101,9.879 16.992,9.622 16.774,9.424 Z m -0.515,2.954 c 0,0.109 -0.033,0.196 -0.099,0.26 -0.066,0.062 -0.155,0.094 -0.267,0.094 -0.11,0 -0.194,-0.03 -0.252,-0.092 -0.058,-0.063 -0.089,-0.149 -0.089,-0.262 v -2.24 c 0,-0.09 0.032,-0.163 0.095,-0.218 0.063,-0.055 0.145,-0.082 0.246,-0.082 0.108,0 0.197,0.027 0.264,0.082 0.068,0.055 0.101,0.128 0.101,0.218 v 2.24 z"
           id="path27" /><polygon
           style="fill:#ffffff;stroke-width:0.72481251"
           points="13.689,7.767 13.115,9.995 13.056,9.995 12.452,7.767 11.515,7.767 12.622,11.132 12.622,13.34 13.553,13.34 13.553,11.028 14.635,7.767 "
           id="polygon29" /></g></g></g></svg>